<svg width="36" height="36" viewBox="0 0 36 36" fill="none" xmlns="http://www.w3.org/2000/svg">
<path fill-rule="evenodd" clip-rule="evenodd" d="M12.0692 5.27079C8.37966 5.27079 5.99528 7.79808 5.99528 11.7108V23.6225C5.99528 27.5352 8.37966 30.0625 12.0692 30.0625H24.7101C28.4011 30.0625 30.7869 27.5352 30.7869 23.6225V11.7108C30.7869 7.79808 28.4011 5.27079 24.7115 5.27079H12.0692ZM24.7101 32.25H12.0692C7.12695 32.25 3.80778 28.782 3.80778 23.6225V11.7108C3.80778 6.55121 7.12695 3.08329 12.0692 3.08329H24.7115C29.6538 3.08329 32.9744 6.55121 32.9744 11.7108V23.6225C32.9744 28.782 29.6538 32.25 24.7101 32.25V32.25Z" fill="#4E4775"/>
<path fill-rule="evenodd" clip-rule="evenodd" d="M16.6608 22.221C16.3823 22.221 16.1008 22.1145 15.8879 21.9002L12.4258 18.4395C11.9985 18.0122 11.9985 17.321 12.4258 16.8937C12.8531 16.4664 13.5443 16.4664 13.9716 16.8937L16.6608 19.58L22.8091 13.4331C23.2364 13.0058 23.9277 13.0058 24.355 13.4331C24.7823 13.8604 24.7823 14.5516 24.355 14.9789L17.4337 21.9002C17.2208 22.1145 16.9408 22.221 16.6608 22.221" fill="#4E4775"/>
</svg>
