<svg width="30" height="44" viewBox="0 0 30 44" fill="none" xmlns="http://www.w3.org/2000/svg">
<g clip-path="url(#clip0_1_17)">
<rect width="30" height="43.0531" transform="translate(0 0.47345)" fill="white" fill-opacity="0.01"/>
<path fill-rule="evenodd" clip-rule="evenodd" d="M12.7125 0.493858C12.5682 0.50034 12.45 0.518519 12.45 0.534314C12.45 0.550034 12.3623 0.562924 12.255 0.562924C12.145 0.562924 12.06 0.575887 12.06 0.592725C12.06 0.609265 11.98 0.622527 11.88 0.622527C11.7801 0.622527 11.7 0.635789 11.7 0.652329C11.7 0.668719 11.6393 0.68213 11.565 0.68213C11.4908 0.68213 11.43 0.695541 11.43 0.711932C11.43 0.728323 11.3727 0.741882 11.3025 0.742031C11.2324 0.742255 11.1087 0.762371 11.0277 0.786734C10.9467 0.811171 10.8354 0.831138 10.7802 0.831138C10.7251 0.831138 10.68 0.844549 10.68 0.86094C10.68 0.877331 10.6336 0.890741 10.5768 0.890741C10.5201 0.890741 10.4652 0.904152 10.455 0.920543C10.4448 0.936934 10.39 0.950344 10.3332 0.950344C10.2765 0.950344 10.23 0.963755 10.23 0.980146C10.23 0.996537 10.1895 1.00995 10.14 1.00995C10.0905 1.00995 10.05 1.02336 10.05 1.03975C10.05 1.05614 10.0095 1.06955 9.96003 1.06955C9.91053 1.06955 9.87003 1.08296 9.87003 1.09935C9.87003 1.11574 9.8371 1.12915 9.79683 1.12915C9.75655 1.12915 9.71523 1.14256 9.70503 1.15896C9.69483 1.17535 9.6535 1.18876 9.61323 1.18876C9.57295 1.18876 9.54003 1.20217 9.54003 1.21856C9.54003 1.23495 9.49953 1.24836 9.45003 1.24836C9.40053 1.24836 9.36003 1.26177 9.36003 1.27816C9.36003 1.29455 9.31953 1.30796 9.27003 1.30796C9.22053 1.30796 9.18003 1.31921 9.18003 1.333C9.18003 1.34671 9.09228 1.38291 8.98503 1.41339C8.87778 1.44386 8.79003 1.47955 8.79003 1.49266C8.79003 1.50585 8.7643 1.51657 8.73288 1.51657C8.67168 1.51657 8.42163 1.63586 8.40505 1.67303C8.3995 1.68533 8.36913 1.69538 8.33755 1.69538C8.3059 1.69538 8.28003 1.7088 8.28003 1.72519C8.28003 1.74158 8.23953 1.75499 8.19003 1.75499C8.14053 1.75499 8.10003 1.7684 8.10003 1.78479C8.10003 1.80118 8.07303 1.81459 8.04003 1.81459C8.00703 1.81459 7.98003 1.82547 7.98003 1.8388C7.98003 1.85214 7.93278 1.8815 7.87503 1.904C7.81728 1.9265 7.77003 1.95585 7.77003 1.96919C7.77003 1.98252 7.75023 1.9934 7.72608 1.9934C7.6651 1.9934 7.47003 2.08847 7.47003 2.11812C7.47003 2.13146 7.44303 2.14241 7.41003 2.14241C7.37703 2.14241 7.35003 2.15582 7.35003 2.17221C7.35003 2.1886 7.32303 2.20201 7.29003 2.20201C7.25703 2.20201 7.23003 2.21542 7.23003 2.23181C7.23003 2.2482 7.20978 2.26161 7.18503 2.26161C7.16028 2.26161 7.14003 2.27503 7.14003 2.29142C7.14003 2.30781 7.11603 2.32122 7.08663 2.32122C7.0573 2.32122 7.0138 2.34804 6.99003 2.38082C6.96625 2.4136 6.92275 2.44042 6.89343 2.44042C6.86403 2.44042 6.84003 2.45384 6.84003 2.47023C6.84003 2.48662 6.81798 2.50003 6.79105 2.50003C6.76413 2.50003 6.72025 2.52491 6.69355 2.55538C6.66685 2.58578 6.61465 2.6202 6.57753 2.6319C6.5404 2.64352 6.51003 2.66558 6.51003 2.68085C6.51003 2.69612 6.48603 2.70864 6.45663 2.70864C6.4273 2.70864 6.3838 2.73546 6.36003 2.76824C6.33625 2.80102 6.2977 2.82785 6.27445 2.82785C6.25113 2.82785 6.21025 2.85139 6.18355 2.88022C6.15685 2.90898 6.09813 2.95137 6.05305 2.97439C6.0079 2.99734 5.96313 3.04085 5.95353 3.07103C5.94385 3.1012 5.91288 3.12586 5.8846 3.12586C5.8564 3.12586 5.8138 3.15268 5.79003 3.18546C5.76625 3.21825 5.7256 3.24507 5.69965 3.24507C5.6737 3.24507 5.60245 3.29201 5.54118 3.34937C5.47998 3.40674 5.419 3.45368 5.40565 3.45368C5.39238 3.45368 5.335 3.50702 5.27823 3.57221C5.22145 3.63741 5.1577 3.69105 5.13655 3.69142C5.11533 3.69179 5.05143 3.73568 4.99458 3.78895C4.80498 3.96634 4.74235 4.01991 4.72435 4.01991C4.70215 4.01991 3.57003 5.14365 3.57003 5.16571C3.57003 5.18612 3.46285 5.31218 3.33753 5.43906C3.2839 5.49338 3.24003 5.5532 3.24003 5.57198C3.24003 5.59083 3.18603 5.65319 3.12003 5.7107C3.05403 5.76815 3.00003 5.8276 3.00003 5.84272C3.00003 5.85792 2.96965 5.90263 2.93253 5.94204C2.81575 6.06609 2.79003 6.10237 2.79003 6.1429C2.79003 6.16458 2.76303 6.20161 2.73003 6.22523C2.69703 6.24885 2.67003 6.27999 2.67003 6.29437C2.67003 6.30875 2.62953 6.35807 2.58003 6.40404C2.53053 6.45001 2.49003 6.50603 2.49003 6.52861C2.49003 6.55118 2.46303 6.58903 2.43003 6.61265C2.39703 6.63627 2.37003 6.6765 2.37003 6.70205C2.37003 6.72761 2.34303 6.76784 2.31003 6.79146C2.27703 6.81508 2.25003 6.85687 2.25003 6.88429C2.25003 6.91163 2.22978 6.94181 2.20503 6.95127C2.18028 6.96066 2.16003 6.99567 2.16003 7.0289C2.16003 7.06221 2.14653 7.08947 2.13003 7.08947C2.11353 7.08947 2.10003 7.11332 2.10003 7.14252C2.10003 7.17165 2.07303 7.21487 2.04003 7.23848C2.00703 7.2621 1.98003 7.30531 1.98003 7.33444C1.98003 7.36365 1.96653 7.38749 1.95003 7.38749C1.93353 7.38749 1.92003 7.41133 1.92003 7.44054C1.92003 7.46967 1.89303 7.51288 1.86003 7.5365C1.82703 7.56012 1.80003 7.59662 1.80003 7.61756C1.80003 7.63857 1.78653 7.65571 1.77003 7.65571C1.75353 7.65571 1.74003 7.68253 1.74003 7.71531C1.74003 7.74809 1.72653 7.77491 1.71003 7.77491C1.69353 7.77491 1.68003 7.80173 1.68003 7.83451C1.68003 7.8673 1.66653 7.89412 1.65003 7.89412C1.63353 7.89412 1.62003 7.90976 1.62003 7.92884C1.62003 7.98442 1.5208 8.19213 1.49425 8.19213C1.4809 8.19213 1.47003 8.21225 1.47003 8.23684C1.47003 8.26142 1.45653 8.28154 1.44003 8.28154C1.42353 8.28154 1.41003 8.32177 1.41003 8.37094C1.41003 8.42012 1.39653 8.46035 1.38003 8.46035C1.36353 8.46035 1.35003 8.48717 1.35003 8.51995C1.35003 8.55273 1.33653 8.57955 1.32003 8.57955C1.30353 8.57955 1.29003 8.60638 1.29003 8.63916C1.29003 8.67194 1.27908 8.69876 1.26565 8.69876C1.25223 8.69876 1.22268 8.7457 1.20003 8.80307C1.17738 8.86043 1.14783 8.90737 1.1344 8.90737C1.12098 8.90737 1.11003 8.9476 1.11003 8.99678C1.11003 9.04595 1.09653 9.08618 1.08003 9.08618C1.06353 9.08618 1.05003 9.11189 1.05003 9.14333C1.05003 9.17469 1.0399 9.20487 1.02753 9.21038C0.995353 9.22454 0.899728 9.50564 0.899878 9.58536C0.899953 9.62224 0.886528 9.65241 0.870028 9.65241C0.853528 9.65241 0.840028 9.67923 0.840028 9.71202C0.840028 9.7448 0.826528 9.77162 0.810028 9.77162C0.793528 9.77162 0.780028 9.81185 0.780028 9.86102C0.780028 9.9102 0.766528 9.95043 0.750028 9.95043C0.733528 9.95043 0.720028 9.98395 0.720028 10.0249C0.720028 10.0659 0.706528 10.0994 0.690028 10.0994C0.673528 10.0994 0.660028 10.1397 0.660028 10.1888C0.660028 10.238 0.646528 10.2782 0.630028 10.2782C0.613528 10.2782 0.600028 10.3185 0.600028 10.3677C0.600028 10.4168 0.586528 10.4571 0.570028 10.4571C0.553528 10.4571 0.540028 10.5032 0.540028 10.5596C0.540028 10.616 0.526528 10.6704 0.510028 10.6806C0.493528 10.6907 0.480028 10.7318 0.480028 10.7718C0.480028 10.8118 0.466528 10.8445 0.450028 10.8445C0.433528 10.8445 0.420028 10.8981 0.420028 10.9637C0.420028 11.0292 0.409528 11.0829 0.396703 11.0829C0.370753 11.0829 0.301753 11.4284 0.279103 11.6715C0.271078 11.7575 0.252253 11.8279 0.237253 11.8279C0.222253 11.8279 0.210028 11.8883 0.210028 11.962C0.210028 12.0358 0.196528 12.0961 0.180028 12.0961C0.163378 12.0961 0.150028 12.1756 0.150028 12.275C0.150028 12.3743 0.136678 12.4538 0.120028 12.4538C0.103153 12.4538 0.0900275 12.5374 0.0900275 12.645C0.0900275 12.7714 0.0773525 12.8404 0.0525275 12.8486C-0.00237246 12.8668 -0.00237246 16.4513 0.0525275 16.4695C0.0773525 16.4777 0.0900275 16.5467 0.0900275 16.6731C0.0900275 16.7808 0.103153 16.8644 0.120028 16.8644C0.136678 16.8644 0.150028 16.9439 0.150028 17.0432C0.150028 17.1425 0.163378 17.222 0.180028 17.222C0.196528 17.222 0.210028 17.2958 0.210028 17.3859C0.210028 17.4761 0.221803 17.5498 0.236203 17.5498C0.250603 17.5498 0.270703 17.6135 0.280903 17.6914C0.316453 17.9627 0.375178 18.2606 0.397528 18.2826C0.409903 18.2948 0.420028 18.3428 0.420028 18.3893C0.420028 18.4357 0.433528 18.4737 0.450028 18.4737C0.466528 18.4737 0.480028 18.5206 0.480028 18.578C0.480028 18.6354 0.493528 18.6823 0.510028 18.6823C0.526528 18.6823 0.540028 18.7225 0.540028 18.7717C0.540028 18.8209 0.553528 18.8611 0.570028 18.8611C0.586528 18.8611 0.600028 18.9013 0.600028 18.9505C0.600028 18.9997 0.613528 19.0399 0.630028 19.0399C0.646528 19.0399 0.660028 19.0801 0.660028 19.1293C0.660028 19.1785 0.673528 19.2187 0.690028 19.2187C0.706528 19.2187 0.720028 19.2523 0.720028 19.2932C0.720028 19.3342 0.733528 19.3677 0.750028 19.3677C0.766528 19.3677 0.780028 19.408 0.780028 19.4571C0.780028 19.5063 0.793528 19.5465 0.810028 19.5465C0.826528 19.5465 0.840028 19.5868 0.840028 19.6359C0.840028 19.6851 0.852028 19.7254 0.866653 19.7254C0.881278 19.7254 0.899953 19.7622 0.908203 19.8073C0.937528 19.9677 1.15735 20.4733 1.20738 20.4952C1.21983 20.5007 1.23003 20.5443 1.23003 20.5921C1.23003 20.6399 1.24353 20.679 1.26003 20.679C1.27653 20.679 1.29003 20.7058 1.29003 20.7386C1.29003 20.7714 1.30353 20.7982 1.32003 20.7982C1.33653 20.7982 1.35003 20.825 1.35003 20.8578C1.35003 20.8906 1.36098 20.9174 1.3744 20.9174C1.38783 20.9174 1.41738 20.9644 1.44003 21.0217C1.46268 21.0791 1.49223 21.126 1.50565 21.126C1.51908 21.126 1.53003 21.1458 1.53003 21.1699C1.53003 21.227 1.6807 21.5433 1.70793 21.5433C1.7194 21.5433 1.74738 21.5902 1.77003 21.6476C1.79268 21.7049 1.82223 21.7519 1.83565 21.7519C1.84908 21.7519 1.86003 21.7757 1.86003 21.8049C1.86003 21.834 1.88703 21.8773 1.92003 21.9009C1.95303 21.9245 1.98003 21.9677 1.98003 21.9968C1.98003 22.026 1.99353 22.0499 2.01003 22.0499C2.02653 22.0499 2.04003 22.0718 2.04003 22.0985C2.04003 22.1253 2.06403 22.1689 2.09343 22.1954C2.12275 22.2219 2.1721 22.3006 2.203 22.3702C2.23383 22.4399 2.27058 22.4969 2.2846 22.4969C2.29855 22.4969 2.31003 22.515 2.31003 22.5372C2.31003 22.5593 2.34715 22.6166 2.39253 22.6644C2.4379 22.7121 2.49415 22.7879 2.51763 22.8327C2.54103 22.8775 2.5714 22.9141 2.58513 22.9141C2.59878 22.9141 2.61003 22.9289 2.61003 22.9469C2.61003 22.9649 2.65053 23.0172 2.70003 23.0631C2.74953 23.1091 2.79003 23.1649 2.79003 23.1872C2.79003 23.2095 2.82378 23.2638 2.86503 23.308C2.90628 23.3522 2.94003 23.4007 2.94003 23.4158C2.94003 23.431 2.99403 23.4904 3.06003 23.5479C3.12603 23.6054 3.18003 23.6677 3.18003 23.6864C3.18003 23.7051 3.24078 23.7807 3.31503 23.8544C3.38928 23.9282 3.45003 24.0014 3.45003 24.0171C3.45003 24.0327 3.88878 24.4826 4.42503 25.0167C4.96128 25.5509 5.40003 26.0005 5.40003 26.0159C5.40003 26.1129 8.08015 28.7006 8.14855 28.6696C8.19843 28.6471 8.24433 28.6467 8.30178 28.6684C8.36118 28.6908 8.3869 28.69 8.39523 28.6652C8.40153 28.6465 8.4526 28.5886 8.50878 28.5367C8.56495 28.4848 8.7103 28.3435 8.83188 28.2227C8.95338 28.1019 9.09333 27.9628 9.14283 27.9136C9.19233 27.8645 9.33408 27.7237 9.45783 27.6007C9.58158 27.4778 9.72333 27.337 9.77283 27.2878C9.82233 27.2386 9.96415 27.0979 10.088 26.975C10.3556 26.7095 10.3691 26.6961 10.6963 26.3711C10.8366 26.2318 10.9783 26.091 11.0113 26.0582C11.0443 26.0254 11.1842 25.8864 11.3222 25.7493C11.4603 25.6122 11.6001 25.4732 11.6331 25.4404C11.6661 25.4076 11.8079 25.2668 11.9481 25.1275C12.0884 24.9882 12.2301 24.8474 12.2631 24.8146C12.2961 24.7818 12.4379 24.641 12.5781 24.5017C12.7184 24.3623 12.8601 24.2215 12.8931 24.1887C12.9261 24.156 13.0661 24.0173 13.2041 23.8805C13.4936 23.5937 13.4442 23.6427 13.8045 23.2849C13.9587 23.1315 14.1005 22.9907 14.1195 22.9719C14.1384 22.9532 14.2841 22.8084 14.4432 22.6503C14.6024 22.4921 14.7422 22.3524 14.7538 22.3397C14.7655 22.327 14.8071 22.2904 14.8464 22.2583C14.9046 22.2109 14.9142 22.1825 14.8986 22.1046C14.8832 22.0284 14.894 21.9938 14.9522 21.9327C15.082 21.7963 15.0355 21.7222 14.4963 21.2057C14.4421 21.1537 14.3139 21.026 14.2113 20.922C14.1089 20.818 13.9659 20.6772 13.8938 20.6091C13.8216 20.541 13.6798 20.4002 13.5788 20.2962C13.4777 20.1922 13.3359 20.0514 13.2638 19.9833C13.1916 19.9152 13.0498 19.7744 12.9488 19.6704C12.8477 19.5664 12.7059 19.4255 12.6338 19.3575C12.5616 19.2894 12.4198 19.1485 12.3188 19.0445C12.2177 18.9405 12.0759 18.7997 12.0038 18.7316C11.9316 18.6635 11.7898 18.5227 11.6888 18.4187C11.5877 18.3147 11.4459 18.1739 11.3738 18.1058C11.3016 18.0377 11.1598 17.897 11.0588 17.7929C10.9577 17.689 10.8297 17.5616 10.7743 17.5098C10.4474 17.2042 10.3216 17.0732 10.2809 16.9959C10.2557 16.9481 10.207 16.8795 10.1726 16.8433C10.1382 16.8071 10.11 16.7665 10.11 16.753C10.11 16.7395 10.083 16.7092 10.05 16.6856C10.017 16.662 9.99003 16.6217 9.99003 16.5962C9.99003 16.5706 9.96303 16.5304 9.93003 16.5068C9.89703 16.4832 9.87003 16.44 9.87003 16.4108C9.87003 16.3816 9.85653 16.3578 9.84003 16.3578C9.82353 16.3578 9.81003 16.3359 9.81003 16.3091C9.81003 16.2824 9.7852 16.2388 9.75483 16.2123C9.72445 16.1857 9.67525 16.0865 9.6454 15.9917C9.61563 15.897 9.5797 15.8124 9.5656 15.8038C9.55158 15.7951 9.54003 15.7646 9.54003 15.7361C9.54003 15.6709 9.4726 15.5238 9.44253 15.5236C9.43015 15.5234 9.42003 15.4697 9.42003 15.4041C9.42003 15.3386 9.40653 15.2849 9.39003 15.2849C9.37353 15.2849 9.36003 15.2447 9.36003 15.1955C9.36003 15.1463 9.34653 15.1061 9.33003 15.1061C9.31353 15.1061 9.30003 15.0458 9.30003 14.972C9.30003 14.8982 9.28653 14.8379 9.27003 14.8379C9.2524 14.8379 9.24003 14.7336 9.24003 14.5846C9.24003 14.4356 9.22765 14.3313 9.21003 14.3313C9.19203 14.3313 9.18003 14.2121 9.18003 14.0332C9.18003 13.8544 9.19203 13.7352 9.21003 13.7352C9.22735 13.7352 9.24003 13.6408 9.24003 13.5117C9.24003 13.3826 9.2527 13.2882 9.27003 13.2882C9.28653 13.2882 9.30003 13.2279 9.30003 13.1541C9.30003 13.0803 9.31353 13.02 9.33003 13.02C9.34653 13.02 9.36003 12.9664 9.36003 12.9008C9.36003 12.8352 9.37353 12.7816 9.39003 12.7816C9.40653 12.7816 9.42003 12.7413 9.42003 12.6922C9.42003 12.643 9.43353 12.6028 9.45003 12.6028C9.46653 12.6028 9.48003 12.5763 9.48003 12.5441C9.48003 12.5118 9.50703 12.4376 9.54003 12.3793C9.57303 12.3209 9.60003 12.2467 9.60003 12.2145C9.60003 12.1822 9.61233 12.1557 9.6274 12.1557C9.64248 12.1557 9.66385 12.1021 9.67503 12.0365C9.6862 11.971 9.70758 11.9173 9.72265 11.9173C9.73773 11.9173 9.75003 11.8972 9.75003 11.8726C9.75003 11.848 9.76353 11.8279 9.78003 11.8279C9.79653 11.8279 9.81003 11.8041 9.81003 11.7749C9.81003 11.7458 9.83703 11.7025 9.87003 11.6789C9.90303 11.6553 9.93003 11.6151 9.93003 11.5895C9.93003 11.564 9.95703 11.5237 9.99003 11.5001C10.023 11.4765 10.05 11.4386 10.05 11.4161C10.05 11.3935 10.0905 11.3375 10.14 11.2915C10.1895 11.2455 10.23 11.1994 10.23 11.1889C10.23 11.1423 10.9704 10.3975 11.0167 10.3975C11.0328 10.3975 11.0838 10.3572 11.13 10.308C11.1763 10.2589 11.2327 10.2186 11.2554 10.2186C11.2782 10.2186 11.3163 10.1918 11.34 10.159C11.3638 10.1263 11.4073 10.0994 11.4366 10.0994C11.466 10.0994 11.49 10.0875 11.49 10.0728C11.49 10.0582 11.5238 10.0379 11.565 10.0276C11.6063 10.0173 11.64 9.99573 11.64 9.97963C11.64 9.96362 11.667 9.95043 11.7 9.95043C11.733 9.95043 11.76 9.93702 11.76 9.92063C11.76 9.90424 11.787 9.89083 11.82 9.89083C11.853 9.89083 11.88 9.87741 11.88 9.86102C11.88 9.84463 11.907 9.83122 11.94 9.83122C11.973 9.83122 12 9.81781 12 9.80142C12 9.78503 12.0338 9.77162 12.075 9.77162C12.1163 9.77162 12.15 9.75821 12.15 9.74182C12.15 9.72543 12.177 9.71202 12.21 9.71202C12.243 9.71202 12.27 9.6986 12.27 9.68221C12.27 9.66582 12.3105 9.65241 12.36 9.65241C12.4095 9.65241 12.45 9.639 12.45 9.62261C12.45 9.60622 12.504 9.59281 12.57 9.59281C12.636 9.59281 12.69 9.5794 12.69 9.56301C12.69 9.54662 12.7373 9.53321 12.795 9.53321C12.8528 9.53321 12.9 9.51979 12.9 9.5034C12.9 9.48701 12.9664 9.4736 13.0476 9.4736C13.132 9.4736 13.2 9.45893 13.2066 9.43933C13.2225 9.39165 14.6178 9.39262 14.6339 9.44037C14.64 9.45863 14.7047 9.4736 14.7775 9.4736C14.8504 9.4736 14.91 9.48701 14.91 9.5034C14.91 9.51979 14.964 9.53321 15.03 9.53321C15.096 9.53321 15.15 9.54662 15.15 9.56301C15.15 9.5794 15.1905 9.59281 15.24 9.59281C15.2895 9.59281 15.33 9.60622 15.33 9.62261C15.33 9.639 15.3638 9.65241 15.405 9.65241C15.4463 9.65241 15.48 9.66582 15.48 9.68221C15.48 9.6986 15.5205 9.71202 15.57 9.71202C15.6195 9.71202 15.66 9.72543 15.66 9.74182C15.66 9.75821 15.687 9.77162 15.72 9.77162C15.753 9.77162 15.78 9.78503 15.78 9.80142C15.78 9.81781 15.8059 9.83122 15.8376 9.83122C15.8691 9.83122 15.8995 9.8418 15.9051 9.85469C15.9186 9.88658 16.2405 10.0398 16.2939 10.0398C16.3175 10.0398 16.3563 10.0667 16.38 10.0994C16.4038 10.1322 16.4439 10.1592 16.4691 10.1593C16.4944 10.1595 16.5469 10.1997 16.5859 10.2487C16.6249 10.2978 16.6688 10.3378 16.6834 10.3378C16.698 10.3378 16.7656 10.3915 16.8336 10.4571C16.9017 10.5226 16.9754 10.5763 16.9976 10.5763C17.0198 10.5763 17.0688 10.61 17.1065 10.6513C17.1442 10.6926 17.2189 10.7726 17.2725 10.8291C17.3262 10.8856 17.37 10.9442 17.37 10.9591C17.37 10.974 17.4207 11.0349 17.4825 11.0944C17.5444 11.1539 17.6423 11.2496 17.7 11.3071C17.7578 11.3645 17.9045 11.5103 18.0261 11.6311C18.1477 11.7518 18.2877 11.8908 18.3372 11.94C18.3867 11.9892 18.5285 12.13 18.6522 12.2529C18.776 12.3758 18.9177 12.5166 18.9672 12.5658C19.0167 12.615 19.1585 12.7558 19.2822 12.8787C19.406 13.0017 19.5477 13.1425 19.5972 13.1917C19.6467 13.2408 19.7885 13.3816 19.9122 13.5046C20.1774 13.768 20.2536 13.8437 20.5085 14.0967C20.7155 14.3022 20.8335 14.4194 21.1347 14.7187C21.2419 14.8252 21.3889 14.9682 21.4614 15.0364C21.534 15.1045 21.5991 15.1776 21.6061 15.1987C21.6166 15.2299 21.6362 15.23 21.7118 15.1989C21.7813 15.1703 21.8202 15.169 21.8668 15.1938C21.9229 15.2236 21.972 15.1836 22.3656 14.7865C22.6058 14.5443 22.8119 14.3366 22.8237 14.325C22.8354 14.3133 24.1242 13.0362 25.6875 11.4868C27.2509 9.93746 28.53 8.65562 28.53 8.63834C28.53 8.59557 28.4871 8.5458 28.2655 8.33108C28.1613 8.23006 28.0195 8.08999 27.9505 8.01981C27.8815 7.94955 27.7394 7.80874 27.6347 7.70689C27.53 7.60497 27.3747 7.44985 27.2897 7.36216C27.2046 7.27439 27.0756 7.14699 27.0028 7.07904C26.9301 7.01102 26.7271 6.8112 26.5518 6.635C26.3763 6.4588 26.2131 6.31404 26.1889 6.31329C26.1648 6.31247 26.0978 6.25823 26.04 6.1926C25.9823 6.12696 25.8507 5.99009 25.7477 5.88847C25.6446 5.78685 25.5029 5.64626 25.4327 5.57607C25.3625 5.50589 25.2194 5.36508 25.1147 5.26316C25.01 5.16124 24.8547 5.00642 24.7697 4.91902C24.6846 4.8317 24.5571 4.7043 24.4864 4.63591C24.4157 4.56759 24.2598 4.41441 24.1399 4.29557C24.0201 4.17674 23.9121 4.07951 23.9 4.07951C23.8879 4.07951 23.8313 4.03593 23.7742 3.98266C23.4985 3.72547 23.4605 3.69209 23.4435 3.69209C23.4336 3.69209 23.3735 3.63845 23.31 3.57289C23.2466 3.50732 23.1795 3.45368 23.161 3.45368C23.1425 3.45368 23.0922 3.41874 23.0492 3.37605C23.0062 3.33336 22.9332 3.2853 22.8867 3.26928C22.8404 3.25319 22.7943 3.21437 22.7842 3.18301C22.7742 3.15157 22.7453 3.12586 22.7201 3.12586C22.6948 3.12586 22.6363 3.08563 22.59 3.03646C22.5438 2.98728 22.4874 2.94705 22.4646 2.94705C22.4419 2.94705 22.4038 2.92023 22.38 2.88745C22.3563 2.85467 22.316 2.82785 22.2906 2.82785C22.2652 2.82785 22.2276 2.80102 22.207 2.76824C22.1864 2.73546 22.1511 2.70864 22.1285 2.70864C22.1058 2.70864 22.0706 2.68852 22.05 2.66394C22.0295 2.63935 21.9873 2.61923 21.9564 2.61923C21.9254 2.61923 21.9 2.60582 21.9 2.58943C21.9 2.57304 21.876 2.55963 21.8466 2.55963C21.8173 2.55963 21.7738 2.53281 21.75 2.50003C21.7263 2.46725 21.6828 2.44042 21.6534 2.44042C21.624 2.44042 21.6 2.42701 21.6 2.41062C21.6 2.39423 21.5828 2.38082 21.5616 2.38082C21.5406 2.38082 21.5038 2.354 21.48 2.32122C21.4563 2.28844 21.4128 2.26161 21.3834 2.26161C21.354 2.26161 21.33 2.2482 21.33 2.23181C21.33 2.21542 21.303 2.20201 21.27 2.20201C21.237 2.20201 21.21 2.1886 21.21 2.17221C21.21 2.15582 21.183 2.14241 21.15 2.14241C21.117 2.14241 21.09 2.129 21.09 2.11261C21.09 2.09622 21.063 2.08281 21.03 2.08281C20.997 2.08281 20.97 2.06999 20.97 2.05434C20.97 2.0387 20.9228 2.01709 20.865 2.00636C20.8073 1.99556 20.76 1.97485 20.76 1.96025C20.76 1.94572 20.733 1.9338 20.7 1.9338C20.667 1.9338 20.64 1.92039 20.64 1.904C20.64 1.8876 20.613 1.87419 20.58 1.87419C20.547 1.87419 20.52 1.86078 20.52 1.84439C20.52 1.828 20.493 1.81459 20.46 1.81459C20.427 1.81459 20.4 1.80118 20.4 1.78479C20.4 1.7684 20.3798 1.75499 20.355 1.75499C20.3303 1.75499 20.31 1.74158 20.31 1.72519C20.31 1.7088 20.283 1.69538 20.25 1.69538C20.217 1.69538 20.19 1.68197 20.19 1.66558C20.19 1.64919 20.163 1.63578 20.13 1.63578C20.097 1.63578 20.07 1.62237 20.07 1.60598C20.07 1.58959 20.0295 1.57618 19.98 1.57618C19.9305 1.57618 19.89 1.56277 19.89 1.54638C19.89 1.52999 19.863 1.51657 19.83 1.51657C19.797 1.51657 19.77 1.50562 19.77 1.49221C19.77 1.46278 19.4759 1.36757 19.3849 1.36757C19.3492 1.36757 19.32 1.35416 19.32 1.33777C19.32 1.32137 19.293 1.30796 19.26 1.30796C19.227 1.30796 19.2 1.29455 19.2 1.27816C19.2 1.26177 19.1671 1.24836 19.1268 1.24836C19.0866 1.24836 19.0452 1.23495 19.035 1.21856C19.0248 1.20217 18.9835 1.18876 18.9432 1.18876C18.903 1.18876 18.87 1.17535 18.87 1.15896C18.87 1.14256 18.8295 1.12915 18.78 1.12915C18.7305 1.12915 18.69 1.11574 18.69 1.09935C18.69 1.08296 18.6495 1.06955 18.6 1.06955C18.5505 1.06955 18.51 1.05614 18.51 1.03975C18.51 1.02336 18.4628 1.00995 18.405 1.00995C18.3473 1.00995 18.3 0.996537 18.3 0.980146C18.3 0.963755 18.2595 0.950344 18.21 0.950344C18.1605 0.950344 18.12 0.936934 18.12 0.920543C18.12 0.904152 18.066 0.890741 18 0.890741C17.934 0.890741 17.88 0.880311 17.88 0.867571C17.88 0.843357 17.5486 0.776303 17.3025 0.750748C17.2242 0.742627 17.16 0.723852 17.16 0.709026C17.16 0.694274 17.0925 0.68213 17.01 0.68213C16.9275 0.68213 16.86 0.668719 16.86 0.652329C16.86 0.635938 16.7866 0.622527 16.6968 0.622527C16.6071 0.622527 16.5252 0.609116 16.515 0.592725C16.5048 0.576334 16.4106 0.562924 16.3058 0.562924C16.1846 0.562924 16.1107 0.54996 16.1031 0.527311C16.0912 0.491996 13.3551 0.464951 12.7125 0.493858Z" fill="#6A35F5"/>
<path fill-rule="evenodd" clip-rule="evenodd" d="M21.684 15.2179C21.6394 15.2239 21.5949 15.2515 21.5853 15.2792C21.5755 15.3069 21.5135 15.3765 21.4473 15.4338C21.3812 15.4912 21.2399 15.6253 21.1334 15.7319C21.0269 15.8384 20.8875 15.9775 20.8236 16.041C20.7597 16.1044 20.6196 16.2435 20.5124 16.3501C20.4051 16.4566 20.2634 16.5974 20.1974 16.663C20.1314 16.7286 19.9896 16.8694 19.8824 16.9759C19.7751 17.0825 19.6313 17.225 19.5627 17.2926C19.4942 17.3603 19.3542 17.5007 19.2516 17.6047C19.149 17.7087 19.0059 17.8496 18.9338 17.9176C18.8616 17.9857 18.7198 18.1266 18.6188 18.2306C18.5177 18.3346 18.3759 18.4754 18.3038 18.5435C18.2316 18.6116 18.0898 18.7524 17.9888 18.8564C17.8877 18.9604 17.7459 19.1012 17.6738 19.1693C17.6016 19.2374 17.4598 19.3779 17.3588 19.4813C17.2577 19.5848 17.131 19.7122 17.0772 19.7645C17.0233 19.8167 16.8933 19.9448 16.7883 20.0493C16.6833 20.1537 16.5434 20.2928 16.4774 20.3584C16.4114 20.424 16.2696 20.5648 16.1624 20.6713C16.0551 20.7779 15.9151 20.917 15.8512 20.9804C15.6693 21.1611 15.344 21.4852 15.1953 21.6338C15.1209 21.7081 15.06 21.7925 15.06 21.8212C15.06 21.85 15.033 21.9023 15 21.9374C14.9168 22.0262 14.9234 22.1519 15.0157 22.235C15.0573 22.2725 15.1485 22.3602 15.2182 22.43C15.4228 22.6346 15.7122 22.9219 15.811 23.0183C15.8613 23.0675 16.0028 23.2083 16.1253 23.3313C16.2477 23.4542 16.3923 23.5975 16.4465 23.6497C16.5007 23.7019 16.629 23.8293 16.7316 23.9328C16.8341 24.0363 16.9758 24.1771 17.0466 24.2456C17.1172 24.3142 17.259 24.455 17.3616 24.5586C17.4641 24.6621 17.6058 24.8029 17.6766 24.8715C17.7472 24.94 17.889 25.0808 17.9916 25.1844C18.0942 25.288 18.2342 25.428 18.3027 25.4957C18.3713 25.5633 18.5151 25.7058 18.6224 25.8124C18.7296 25.9189 18.8714 26.0597 18.9374 26.1253C19.0034 26.1909 19.1428 26.33 19.2472 26.4344C19.3516 26.5389 19.4911 26.6713 19.5572 26.7286C19.6233 26.786 19.6779 26.8536 19.6787 26.8789C19.6794 26.9042 19.7273 26.9746 19.785 27.0354C19.8428 27.0962 19.89 27.1564 19.89 27.1692C19.89 27.1819 19.917 27.2116 19.95 27.2353C19.983 27.2589 20.01 27.2991 20.01 27.3247C20.01 27.3502 20.037 27.3905 20.07 27.4141C20.103 27.4377 20.13 27.4809 20.13 27.51C20.13 27.5392 20.1435 27.5631 20.16 27.5631C20.1765 27.5631 20.19 27.5888 20.19 27.6202C20.19 27.6516 20.2007 27.6818 20.2137 27.6873C20.2458 27.7007 20.4 28.0304 20.4 28.0854C20.4 28.1096 20.4135 28.1293 20.43 28.1293C20.4465 28.1293 20.46 28.162 20.46 28.202C20.46 28.242 20.4735 28.2831 20.49 28.2932C20.5065 28.3033 20.52 28.3444 20.52 28.3844C20.52 28.4244 20.5335 28.4571 20.55 28.4571C20.5665 28.4571 20.58 28.4974 20.58 28.5465C20.58 28.5957 20.5935 28.6359 20.61 28.6359C20.6265 28.6359 20.64 28.6896 20.64 28.7551C20.64 28.8207 20.6535 28.8743 20.67 28.8743C20.6865 28.8743 20.7 28.9347 20.7 29.0085C20.7 29.0822 20.7135 29.1426 20.73 29.1426C20.7474 29.1426 20.76 29.2364 20.76 29.3643C20.76 29.4862 20.7735 29.5944 20.79 29.6045C20.8066 29.6147 20.82 29.7488 20.82 29.9043C20.82 30.072 20.8079 30.1856 20.79 30.1856C20.7727 30.1856 20.76 30.28 20.76 30.4091C20.76 30.5382 20.7474 30.6326 20.73 30.6326C20.7135 30.6326 20.7 30.6997 20.7 30.7816C20.7 30.8636 20.6865 30.9307 20.67 30.9307C20.6535 30.9307 20.64 30.9776 20.64 31.035C20.64 31.0923 20.6265 31.1393 20.61 31.1393C20.5935 31.1393 20.58 31.1795 20.58 31.2287C20.58 31.2778 20.5665 31.3181 20.55 31.3181C20.5335 31.3181 20.52 31.3583 20.52 31.4075C20.52 31.4567 20.5065 31.4969 20.49 31.4969C20.4735 31.4969 20.46 31.5304 20.46 31.5714C20.46 31.6124 20.4465 31.6459 20.43 31.6459C20.4135 31.6459 20.4 31.6644 20.4 31.6872C20.4 31.7099 20.3799 31.7669 20.3552 31.8138C20.3306 31.8608 20.3103 31.9227 20.3102 31.9514C20.3101 31.98 20.2965 32.0035 20.28 32.0035C20.2635 32.0035 20.25 32.0303 20.25 32.0631C20.25 32.0959 20.2365 32.1227 20.22 32.1227C20.2035 32.1227 20.19 32.1399 20.19 32.1609C20.19 32.1818 20.163 32.2183 20.13 32.2419C20.097 32.2655 20.07 32.3058 20.07 32.3313C20.07 32.3569 20.043 32.3971 20.01 32.4207C19.977 32.4443 19.95 32.4846 19.95 32.5101C19.95 32.5357 19.923 32.5759 19.89 32.5995C19.857 32.6232 19.83 32.6585 19.83 32.678C19.83 32.6975 19.7423 32.8015 19.635 32.9091C19.5278 33.0167 19.44 33.1252 19.44 33.1502C19.44 33.1752 19.4188 33.1956 19.3929 33.1956C19.367 33.1956 19.2585 33.2827 19.1517 33.3893C19.045 33.4958 18.9409 33.583 18.9205 33.583C18.9 33.583 18.8638 33.6098 18.84 33.6426C18.8163 33.6754 18.7777 33.7022 18.7545 33.7022C18.7311 33.7022 18.6903 33.7257 18.6636 33.7546C18.6369 33.7833 18.5779 33.8259 18.5325 33.849C18.4872 33.8721 18.45 33.9022 18.45 33.9159C18.45 33.9294 18.4365 33.9406 18.4199 33.9406C18.4033 33.9406 18.3198 33.9741 18.2343 34.0151C18.1488 34.0561 18.0611 34.0896 18.0394 34.0896C18.0177 34.0896 18 34.103 18 34.1194C18 34.1358 17.973 34.1492 17.94 34.1492C17.907 34.1492 17.88 34.1626 17.88 34.179C17.88 34.1954 17.8463 34.2088 17.805 34.2088C17.7638 34.2088 17.73 34.2222 17.73 34.2386C17.73 34.255 17.6895 34.2684 17.64 34.2684C17.5905 34.2684 17.55 34.2818 17.55 34.2982C17.55 34.3146 17.5095 34.328 17.46 34.328C17.4105 34.328 17.37 34.3414 17.37 34.3578C17.37 34.3742 17.3228 34.3876 17.265 34.3876C17.2073 34.3876 17.16 34.401 17.16 34.4174C17.16 34.4338 17.0925 34.4472 17.01 34.4472C16.9275 34.4472 16.86 34.4607 16.86 34.477C16.86 34.4943 16.765 34.5068 16.635 34.5068C16.5051 34.5068 16.41 34.5194 16.41 34.5366C16.41 34.5546 16.285 34.5664 16.095 34.5664C15.9051 34.5664 15.78 34.5546 15.78 34.5366C15.78 34.5193 15.6801 34.5068 15.54 34.5068C15.4 34.5068 15.3 34.4944 15.3 34.477C15.3 34.4607 15.2393 34.4472 15.165 34.4472C15.0908 34.4472 15.03 34.4338 15.03 34.4174C15.03 34.401 14.9895 34.3876 14.94 34.3876C14.8905 34.3876 14.85 34.3742 14.85 34.3578C14.85 34.3414 14.8028 34.328 14.745 34.328C14.6873 34.328 14.64 34.3146 14.64 34.2982C14.64 34.2818 14.5995 34.2684 14.55 34.2684C14.5005 34.2684 14.46 34.255 14.46 34.2386C14.46 34.2222 14.433 34.2088 14.4 34.2088C14.367 34.2088 14.34 34.1954 14.34 34.179C14.34 34.1626 14.313 34.1492 14.28 34.1492C14.247 34.1492 14.22 34.1358 14.22 34.1194C14.22 34.103 14.1951 34.0896 14.1646 34.0896C14.1011 34.0896 13.9297 34.0101 13.9038 33.9686C13.8943 33.9532 13.8603 33.9406 13.8282 33.9406C13.7962 33.9406 13.77 33.9272 13.77 33.9108C13.77 33.8944 13.746 33.881 13.7166 33.881C13.6873 33.881 13.6438 33.8542 13.62 33.8214C13.5963 33.7886 13.556 33.7618 13.5306 33.7618C13.5052 33.7618 13.4676 33.735 13.447 33.7022C13.4264 33.6694 13.3962 33.6426 13.3798 33.6426C13.3635 33.6426 13.2945 33.589 13.2264 33.5234C13.1584 33.4578 13.0845 33.4042 13.0623 33.4042C13.04 33.4042 12.9775 33.3571 12.9234 33.2996C12.8693 33.2421 12.7677 33.1352 12.6975 33.062C12.6274 32.9888 12.57 32.9189 12.57 32.9067C12.57 32.8945 12.4887 32.8036 12.3894 32.7047C12.2901 32.6059 12.1215 32.4379 12.0146 32.3313C11.9078 32.2248 11.7663 32.084 11.7003 32.0184C11.6343 31.9528 11.4927 31.812 11.3854 31.7055C11.2782 31.599 11.133 31.4548 11.0628 31.3852C10.9925 31.3155 10.8653 31.1881 10.78 31.1021C10.6947 31.016 10.553 30.8756 10.465 30.79C10.377 30.7045 10.2342 30.5636 10.1476 30.4771C10.0611 30.3906 9.91931 30.2494 9.83261 30.1633C9.74598 30.0774 9.60423 29.9365 9.51761 29.8504C9.43106 29.7644 9.28931 29.6236 9.20261 29.5375C9.11598 29.4515 8.97461 29.3107 8.88858 29.2246C8.80248 29.1385 8.66486 29.0077 8.58258 28.9339C8.50038 28.8602 8.42516 28.7779 8.41556 28.7509C8.39651 28.6976 8.22108 28.6572 8.17886 28.6964C8.16446 28.7098 8.13438 28.7137 8.11188 28.7051C8.08871 28.6963 8.01918 28.7456 7.95093 28.8192C7.88486 28.8905 7.80521 28.9739 7.77386 29.0044C7.68701 29.0891 7.20573 29.5676 7.14693 29.6277C7.11836 29.6568 6.98028 29.7937 6.84003 29.9319C6.69978 30.0701 6.55413 30.2139 6.51633 30.2515C6.47853 30.289 6.33378 30.4337 6.19466 30.573C6.05553 30.7124 5.91378 30.8532 5.87966 30.886C5.84553 30.9187 5.70348 31.0595 5.56398 31.1989C5.42448 31.3382 5.29653 31.4656 5.27966 31.482C5.26278 31.4984 5.12433 31.6356 4.97201 31.7869C4.81968 31.9382 4.67793 32.0791 4.65701 32.0998C4.63608 32.1206 4.49433 32.2614 4.34201 32.4128C4.18968 32.5641 4.04793 32.7049 4.02701 32.7257C4.00608 32.7465 3.86073 32.8909 3.70398 33.0466C3.54723 33.2023 3.40488 33.3431 3.38763 33.3595C3.37046 33.3759 3.22893 33.5167 3.07323 33.6724C2.91746 33.8281 2.77796 33.967 2.76318 33.9809C2.74833 33.9949 2.61986 34.1223 2.47751 34.264C2.16356 34.5768 2.16168 34.5786 1.84323 34.8943C1.47093 35.2632 1.47003 35.2643 1.47003 35.3198C1.47003 35.3722 1.75976 35.6989 1.80626 35.6989C1.83408 35.6989 1.92288 35.7745 2.07813 35.9303C2.13146 35.9838 2.27448 36.1263 2.39613 36.2471C2.65916 36.5083 2.72816 36.5769 2.98451 36.8314C3.09183 36.9379 3.23711 37.081 3.30731 37.1493C3.37758 37.2177 3.50463 37.3451 3.58968 37.4325C3.78716 37.6353 4.13771 37.9638 4.15676 37.9638C4.17048 37.9638 4.39593 38.1738 4.59723 38.3739C4.64673 38.4231 4.78848 38.5639 4.91223 38.6868C5.03598 38.8097 5.17773 38.9506 5.22723 38.9997C5.27673 39.0489 5.41668 39.188 5.53818 39.3088C5.65976 39.4296 5.80323 39.5708 5.85708 39.6227C5.91093 39.6746 6.00641 39.7718 6.06926 39.8388C6.13203 39.9057 6.19661 39.9605 6.21273 39.9605C6.22886 39.9605 6.28863 40.0041 6.34548 40.0574C6.53613 40.2357 6.59778 40.2883 6.61631 40.2883C6.62643 40.2883 6.68658 40.342 6.75003 40.4076C6.81348 40.4731 6.88121 40.5268 6.90063 40.5268C6.92006 40.5268 6.97376 40.567 7.02003 40.6162C7.06631 40.6653 7.12383 40.7056 7.14783 40.7056C7.17191 40.7056 7.21698 40.7391 7.24796 40.7801C7.27893 40.8211 7.32506 40.8546 7.35056 40.8546C7.37598 40.8546 7.41626 40.8814 7.44003 40.9142C7.46381 40.947 7.50431 40.9738 7.53003 40.9738C7.55576 40.9738 7.59626 41.0006 7.62003 41.0334C7.64381 41.0662 7.68431 41.093 7.71003 41.093C7.73576 41.093 7.77626 41.1198 7.80003 41.1526C7.82381 41.1854 7.86056 41.2122 7.88163 41.2122C7.90278 41.2122 7.92003 41.2246 7.92003 41.2398C7.92003 41.255 7.97403 41.2912 8.04003 41.3201C8.10603 41.349 8.16003 41.3835 8.16003 41.3967C8.16003 41.41 8.18703 41.4208 8.22003 41.4208C8.25303 41.4208 8.28003 41.4342 8.28003 41.4506C8.28003 41.467 8.30403 41.4804 8.33343 41.4804C8.36276 41.4804 8.40626 41.5072 8.43003 41.54C8.45381 41.5728 8.49056 41.5996 8.51163 41.5996C8.53278 41.5996 8.55003 41.613 8.55003 41.6294C8.55003 41.6458 8.57703 41.6592 8.61003 41.6592C8.64303 41.6592 8.67003 41.6726 8.67003 41.689C8.67003 41.7054 8.69403 41.7188 8.72343 41.7188C8.75276 41.7188 8.79626 41.7456 8.82003 41.7784C8.84381 41.8112 8.88731 41.838 8.91663 41.838C8.94603 41.838 8.97003 41.8514 8.97003 41.8678C8.97003 41.8842 8.99703 41.8976 9.03003 41.8976C9.06303 41.8976 9.09003 41.9104 9.09003 41.9261C9.09003 41.9417 9.13728 41.9633 9.19503 41.9741C9.25278 41.9849 9.30003 42.0056 9.30003 42.0202C9.30003 42.0347 9.32703 42.0466 9.36003 42.0466C9.39303 42.0466 9.42003 42.0601 9.42003 42.0764C9.42003 42.0928 9.44703 42.1062 9.48003 42.1062C9.51303 42.1062 9.54003 42.1197 9.54003 42.136C9.54003 42.1524 9.56703 42.1658 9.60003 42.1658C9.63303 42.1658 9.66003 42.1793 9.66003 42.1956C9.66003 42.212 9.69378 42.2255 9.73503 42.2255C9.77628 42.2255 9.81003 42.2389 9.81003 42.2553C9.81003 42.2716 9.83703 42.2851 9.87003 42.2851C9.90303 42.2851 9.93003 42.2985 9.93003 42.3149C9.93003 42.3312 9.95703 42.3447 9.99003 42.3447C10.023 42.3447 10.05 42.3581 10.05 42.3745C10.05 42.3909 10.0905 42.4043 10.14 42.4043C10.1895 42.4043 10.2301 42.4143 10.2303 42.4266C10.2306 42.4525 10.3751 42.5235 10.4276 42.5235C10.4472 42.5235 10.5018 42.5435 10.5491 42.568C10.5963 42.5925 10.6722 42.6126 10.7175 42.6127C10.7629 42.6128 10.8 42.6263 10.8 42.6427C10.8 42.6591 10.8338 42.6725 10.875 42.6725C10.9163 42.6725 10.95 42.6859 10.95 42.7023C10.95 42.7187 10.9905 42.7321 11.04 42.7321C11.0895 42.7321 11.13 42.7455 11.13 42.7619C11.13 42.7783 11.1705 42.7917 11.22 42.7917C11.2695 42.7917 11.31 42.8051 11.31 42.8215C11.31 42.8379 11.3505 42.8513 11.4 42.8513C11.4495 42.8513 11.49 42.8647 11.49 42.8811C11.49 42.8975 11.523 42.9109 11.5632 42.9109C11.6035 42.9109 11.6448 42.9243 11.655 42.9407C11.6652 42.9571 11.7201 42.9705 11.7768 42.9705C11.8336 42.9705 11.88 42.9839 11.88 43.0003C11.88 43.0167 11.9205 43.0301 11.97 43.0301C12.0195 43.0301 12.06 43.0435 12.06 43.0599C12.06 43.0763 12.1065 43.0897 12.1632 43.0897C12.22 43.0897 12.2748 43.1031 12.285 43.1195C12.2952 43.1359 12.3636 43.1493 12.4368 43.1493C12.5101 43.1493 12.57 43.1615 12.57 43.1764C12.57 43.1913 12.6848 43.2131 12.825 43.2246C12.9653 43.2362 13.08 43.2576 13.08 43.272C13.08 43.2865 13.161 43.2983 13.26 43.2983C13.36 43.2983 13.44 43.3116 13.44 43.3281C13.44 43.3449 13.525 43.3579 13.635 43.3579C13.7451 43.3579 13.83 43.3709 13.83 43.3877C13.83 43.4052 13.9342 43.4175 14.0826 43.4175C14.2456 43.4175 14.3391 43.4296 14.3465 43.4516C14.3631 43.501 17.0768 43.5016 17.0934 43.4522C17.101 43.4294 17.1919 43.4175 17.3575 43.4175C17.5059 43.4175 17.61 43.4052 17.61 43.3877C17.61 43.3709 17.695 43.3579 17.805 43.3579C17.9151 43.3579 18 43.3449 18 43.3281C18 43.3116 18.0801 43.2983 18.18 43.2983C18.279 43.2983 18.36 43.2873 18.36 43.2737C18.36 43.2602 18.4849 43.2332 18.6375 43.2137C19.0712 43.1582 19.14 43.1449 19.14 43.1164C19.14 43.1017 19.194 43.0897 19.26 43.0897C19.326 43.0897 19.38 43.0763 19.38 43.0599C19.38 43.0435 19.4265 43.0301 19.4832 43.0301C19.54 43.0301 19.5948 43.0167 19.605 43.0003C19.6152 42.9839 19.6566 42.9705 19.6968 42.9705C19.7371 42.9705 19.77 42.9571 19.77 42.9407C19.77 42.9243 19.824 42.9109 19.89 42.9109C19.956 42.9109 20.01 42.8975 20.01 42.8811C20.01 42.8647 20.0505 42.8513 20.1 42.8513C20.1495 42.8513 20.19 42.8379 20.19 42.8215C20.19 42.8051 20.2238 42.7917 20.265 42.7917C20.3063 42.7917 20.34 42.7783 20.34 42.7619C20.34 42.7455 20.3805 42.7321 20.43 42.7321C20.4795 42.7321 20.52 42.7187 20.52 42.7023C20.52 42.6859 20.547 42.6725 20.58 42.6725C20.613 42.6725 20.64 42.6608 20.64 42.6465C20.64 42.6322 20.707 42.6118 20.7888 42.601C20.8707 42.5901 20.9457 42.5683 20.9556 42.5524C20.9655 42.5365 20.9998 42.5235 21.0318 42.5235C21.0639 42.5235 21.09 42.5101 21.09 42.4937C21.09 42.4773 21.123 42.4639 21.1632 42.4639C21.2035 42.4639 21.2448 42.4505 21.255 42.4341C21.2652 42.4177 21.2998 42.4043 21.3318 42.4043C21.3639 42.4043 21.39 42.3909 21.39 42.3745C21.39 42.3581 21.417 42.3447 21.45 42.3447C21.483 42.3447 21.51 42.3312 21.51 42.3149C21.51 42.2985 21.5438 42.2851 21.585 42.2851C21.6263 42.2851 21.66 42.2716 21.66 42.2553C21.66 42.2389 21.687 42.2255 21.72 42.2255C21.753 42.2255 21.78 42.212 21.78 42.1956C21.78 42.1793 21.807 42.1658 21.84 42.1658C21.873 42.1658 21.9 42.1524 21.9 42.136C21.9 42.1197 21.927 42.1062 21.96 42.1062C21.993 42.1062 22.02 42.0928 22.02 42.0764C22.02 42.0601 22.047 42.0466 22.08 42.0466C22.113 42.0466 22.14 42.0332 22.14 42.0168C22.14 42.0004 22.1561 41.987 22.1757 41.987C22.2327 41.987 22.77 41.7144 22.77 41.6854C22.77 41.671 22.7903 41.6592 22.815 41.6592C22.8398 41.6592 22.86 41.6458 22.86 41.6294C22.86 41.613 22.884 41.5996 22.9134 41.5996C22.9428 41.5996 22.9863 41.5728 23.01 41.54C23.0338 41.5072 23.0773 41.4804 23.1066 41.4804C23.136 41.4804 23.16 41.467 23.16 41.4506C23.16 41.4342 23.187 41.4208 23.22 41.4208C23.253 41.4208 23.28 41.4083 23.28 41.393C23.28 41.3777 23.3104 41.3557 23.3475 41.3441C23.3847 41.3324 23.4369 41.298 23.4636 41.2676C23.4903 41.2371 23.5341 41.2122 23.5611 41.2122C23.588 41.2122 23.61 41.1988 23.61 41.1824C23.61 41.166 23.6316 41.1526 23.658 41.1526C23.6844 41.1526 23.7438 41.1124 23.79 41.0632C23.8363 41.014 23.8927 40.9738 23.9154 40.9738C23.9382 40.9738 23.9763 40.947 24 40.9142C24.0238 40.8814 24.0544 40.8546 24.068 40.8546C24.0816 40.8546 24.1265 40.8211 24.1677 40.7801C24.209 40.7391 24.2604 40.7056 24.282 40.7056C24.3035 40.7056 24.3635 40.6653 24.4153 40.6162C24.4671 40.567 24.5215 40.5268 24.5361 40.5268C24.5508 40.5268 24.6102 40.4731 24.668 40.4076C24.7259 40.342 24.7887 40.2883 24.8077 40.2883C24.8415 40.2883 24.8864 40.2522 25.0946 40.0574C25.1514 40.0041 25.2054 39.9605 25.2145 39.9605C25.2303 39.9605 25.5474 39.6609 25.8112 39.3968C25.8793 39.3286 26.0599 39.1489 26.2125 38.9976C26.3652 38.8462 26.49 38.712 26.49 38.6994C26.49 38.6709 26.5311 38.6213 26.6925 38.4546C26.7627 38.3822 26.82 38.3149 26.82 38.305C26.82 38.2951 26.874 38.2355 26.94 38.1724C27.006 38.1094 27.06 38.0428 27.06 38.0244C27.06 38.006 27.0938 37.9574 27.135 37.9164C27.1763 37.8755 27.2102 37.8191 27.2103 37.7911C27.2105 37.7632 27.251 37.7086 27.3003 37.6699C27.3497 37.6312 27.39 37.5839 27.39 37.5647C27.39 37.5456 27.417 37.5106 27.45 37.487C27.483 37.4634 27.51 37.4232 27.51 37.3976C27.51 37.372 27.537 37.3318 27.57 37.3082C27.603 37.2846 27.63 37.2443 27.63 37.2188C27.63 37.1932 27.657 37.153 27.69 37.1294C27.723 37.1058 27.75 37.0709 27.75 37.052C27.75 37.033 27.7703 37.0008 27.795 36.9804C27.8198 36.96 27.84 36.9211 27.84 36.8939C27.84 36.8668 27.867 36.8252 27.9 36.8016C27.933 36.7779 27.96 36.7347 27.96 36.7056C27.96 36.6764 27.9735 36.6526 27.99 36.6526C28.0065 36.6526 28.02 36.6307 28.02 36.6039C28.02 36.5772 28.0447 36.5336 28.0748 36.5071C28.1049 36.4805 28.1487 36.4153 28.1721 36.362C28.1955 36.3087 28.2249 36.2651 28.2374 36.2651C28.2498 36.2651 28.26 36.2383 28.26 36.2055C28.26 36.1728 28.2735 36.1459 28.29 36.1459C28.3065 36.1459 28.32 36.1252 28.32 36.1C28.32 36.0747 28.3464 36.026 28.3785 35.9916C28.4107 35.9574 28.4455 35.8908 28.4559 35.8439C28.4663 35.797 28.4872 35.7585 28.5024 35.7585C28.5176 35.7585 28.53 35.7317 28.53 35.6989C28.53 35.6661 28.5435 35.6393 28.56 35.6393C28.5765 35.6393 28.59 35.6125 28.59 35.5797C28.59 35.5469 28.6035 35.5201 28.62 35.5201C28.6365 35.5201 28.65 35.4933 28.65 35.4605C28.65 35.4277 28.6635 35.4009 28.68 35.4009C28.6965 35.4009 28.71 35.3607 28.71 35.3115C28.71 35.2623 28.7235 35.2221 28.74 35.2221C28.7565 35.2221 28.77 35.202 28.77 35.1774C28.77 35.1528 28.7835 35.1327 28.8 35.1327C28.8165 35.1327 28.83 35.1059 28.83 35.0731C28.83 35.0403 28.8435 35.0135 28.86 35.0135C28.8765 35.0135 28.89 34.9866 28.89 34.9539C28.89 34.9211 28.9035 34.8943 28.92 34.8943C28.9365 34.8943 28.95 34.854 28.95 34.8049C28.95 34.7557 28.9635 34.7155 28.98 34.7155C28.9965 34.7155 29.01 34.6886 29.01 34.6559C29.01 34.6231 29.022 34.5962 29.0367 34.5962C29.0513 34.5962 29.0724 34.5359 29.0835 34.4621C29.0946 34.3884 29.1164 34.328 29.1319 34.328C29.1474 34.328 29.16 34.2878 29.16 34.2386C29.16 34.1895 29.1735 34.1492 29.19 34.1492C29.2065 34.1492 29.22 34.109 29.22 34.0598C29.22 34.0106 29.2335 33.9704 29.25 33.9704C29.2665 33.9704 29.28 33.9369 29.28 33.8959C29.28 33.8549 29.2935 33.8214 29.31 33.8214C29.3265 33.8214 29.34 33.7812 29.34 33.732C29.34 33.6828 29.3535 33.6426 29.37 33.6426C29.3865 33.6426 29.4 33.6024 29.4 33.5532C29.4 33.504 29.4135 33.4638 29.43 33.4638C29.4465 33.4638 29.46 33.4311 29.46 33.3911C29.46 33.3511 29.4735 33.31 29.49 33.2999C29.5065 33.2897 29.52 33.2353 29.52 33.1789C29.52 33.1225 29.5335 33.0764 29.55 33.0764C29.5665 33.0764 29.58 33.0227 29.58 32.9572C29.58 32.8916 29.5935 32.838 29.61 32.838C29.6265 32.838 29.64 32.7918 29.64 32.7354C29.64 32.679 29.6526 32.6251 29.668 32.6157C29.6834 32.6062 29.7054 32.4914 29.7169 32.3606C29.7284 32.2298 29.7495 32.1227 29.7639 32.1227C29.7783 32.1227 29.79 32.0557 29.79 31.9737C29.79 31.8918 29.8035 31.8247 29.82 31.8247C29.8367 31.8247 29.85 31.7452 29.85 31.6459C29.85 31.5466 29.8634 31.4671 29.88 31.4671C29.8969 31.4671 29.91 31.3835 29.91 31.2758C29.91 31.1494 29.9227 31.0804 29.9475 31.0722C29.977 31.0625 29.985 30.6737 29.985 29.2618C29.985 27.8498 29.977 27.4611 29.9475 27.4513C29.9227 27.4431 29.91 27.3741 29.91 27.2477C29.91 27.14 29.8969 27.0564 29.88 27.0564C29.8634 27.0564 29.85 26.977 29.85 26.8776C29.85 26.7783 29.8367 26.6988 29.82 26.6988C29.8035 26.6988 29.79 26.6385 29.79 26.5647C29.79 26.491 29.7785 26.4306 29.7644 26.4306C29.7502 26.4306 29.7294 26.32 29.7181 26.1848C29.7069 26.0495 29.6847 25.9344 29.6688 25.929C29.653 25.9235 29.64 25.8665 29.64 25.8023C29.64 25.7381 29.6265 25.6856 29.61 25.6856C29.5935 25.6856 29.58 25.6395 29.58 25.5831C29.58 25.5267 29.5665 25.4722 29.55 25.4621C29.5335 25.4519 29.52 25.3975 29.52 25.3411C29.52 25.2847 29.5065 25.2386 29.49 25.2386C29.4735 25.2386 29.46 25.1983 29.46 25.1492C29.46 25.1 29.4465 25.0597 29.43 25.0597C29.4135 25.0597 29.4 25.0195 29.4 24.9703C29.4 24.9212 29.3865 24.8809 29.37 24.8809C29.3535 24.8809 29.34 24.8474 29.34 24.8064C29.34 24.7655 29.3265 24.7319 29.31 24.7319C29.2935 24.7319 29.28 24.6917 29.28 24.6425C29.28 24.5933 29.2665 24.5531 29.25 24.5531C29.2335 24.5531 29.22 24.5129 29.22 24.4637C29.22 24.4145 29.2065 24.3743 29.19 24.3743C29.1735 24.3743 29.16 24.3416 29.16 24.3016C29.16 24.2616 29.1489 24.2219 29.1353 24.2136C29.1216 24.2053 29.0852 24.1106 29.0543 24.0033C29.0234 23.8959 28.9873 23.8081 28.9741 23.8081C28.9608 23.8081 28.95 23.7839 28.95 23.7544C28.95 23.6878 28.883 23.5404 28.8525 23.5401C28.8402 23.5399 28.83 23.513 28.83 23.4803C28.83 23.4475 28.8165 23.4207 28.8 23.4207C28.7835 23.4207 28.77 23.3804 28.77 23.3313C28.77 23.2821 28.7565 23.2418 28.74 23.2418C28.7235 23.2418 28.71 23.215 28.71 23.1822C28.71 23.1495 28.6991 23.1226 28.6857 23.1226C28.6722 23.1226 28.6427 23.0757 28.62 23.0183C28.5974 22.961 28.5678 22.914 28.5544 22.914C28.541 22.914 28.53 22.8872 28.53 22.8544C28.53 22.8216 28.5165 22.7948 28.5 22.7948C28.4835 22.7948 28.47 22.7752 28.47 22.7512C28.47 22.6906 28.3743 22.4968 28.3445 22.4968C28.3311 22.4968 28.32 22.47 28.32 22.4372C28.32 22.4044 28.3065 22.3776 28.29 22.3776C28.2735 22.3776 28.26 22.3575 28.26 22.3329C28.26 22.3083 28.2465 22.2882 28.23 22.2882C28.2135 22.2882 28.2 22.2614 28.2 22.2286C28.2 22.1958 28.1865 22.169 28.17 22.169C28.1535 22.169 28.14 22.1452 28.14 22.1159C28.14 22.0868 28.113 22.0436 28.08 22.02C28.047 21.9964 28.02 21.9532 28.02 21.924C28.02 21.8948 28.0065 21.871 27.99 21.871C27.9735 21.871 27.96 21.8534 27.96 21.8319C27.96 21.8104 27.9347 21.7658 27.9037 21.7328C27.8727 21.6997 27.8381 21.6435 27.8267 21.6079C27.8153 21.5723 27.7934 21.5432 27.778 21.5432C27.7626 21.5432 27.75 21.5193 27.75 21.4901C27.75 21.461 27.723 21.4178 27.69 21.3942C27.657 21.3705 27.63 21.3303 27.63 21.3047C27.63 21.2792 27.603 21.239 27.57 21.2153C27.537 21.1917 27.51 21.1582 27.51 21.1408C27.51 21.1235 27.483 21.09 27.45 21.0663C27.417 21.0427 27.39 21.0049 27.39 20.9823C27.39 20.9597 27.3495 20.9037 27.3 20.8577C27.2505 20.8118 27.21 20.756 27.21 20.7337C27.21 20.7114 27.1763 20.6571 27.135 20.6128C27.0938 20.5686 27.06 20.5242 27.06 20.514C27.06 20.5038 27.006 20.4439 26.94 20.3809C26.874 20.3179 26.82 20.2522 26.82 20.2349C26.82 20.2176 26.7458 20.1273 26.655 20.0342C26.5643 19.9412 26.49 19.8534 26.49 19.8393C26.49 19.8251 25.9433 19.2706 25.275 18.6072C24.6068 17.9437 24.06 17.3887 24.06 17.3739C24.06 17.3592 23.9326 17.2218 23.7769 17.0685C23.6211 16.9152 23.476 16.7722 23.4544 16.7507C23.4327 16.7292 23.2868 16.5851 23.13 16.4304C22.9733 16.2757 22.8354 16.139 22.8237 16.1267C22.0397 15.3068 21.8924 15.1893 21.684 15.2179Z" fill="#F4C249"/>
</g>
<defs>
<clipPath id="clip0_1_17">
<rect width="30" height="43.0531" fill="white" transform="translate(0 0.47345)"/>
</clipPath>
</defs>
</svg>
